
<svg version="1.1" 
    xmlns="http://www.w3.org/2000/svg" 
    xmlns:xlink="http://www.w3.org/1999/xlink" 
    class="kartezia"
    width="10" height="10" 
    viewBox="0 0 10.0 10.0">

    <style type="text/css"><![CDATA[
        #krado {
            fill: none;
            stroke-width: 0.01;
            stroke: gray;
        }    
    ]]></style>

<g id="krado">
    <line x1="0.01" y1="0" x2="0.01" y2="10"/>
    <line x1="1" y1="0" x2="1" y2="10"/>
    <line x1="2" y1="0" x2="2" y2="10"/>
    <line x1="3" y1="0" x2="3" y2="10"/>
    <line x1="4" y1="0" x2="4" y2="10"/>
    <line x1="5" y1="0" x2="5" y2="10"/>
    <line x1="6" y1="0" x2="6" y2="10"/>
    <line x1="7" y1="0" x2="7" y2="10"/>
    <line x1="8" y1="0" x2="8" y2="10"/>
    <line x1="9" y1="0" x2="9" y2="10"/>
    <line x1="9.99" y1="0" x2="9.99" y2="10"/>

    <line y1="0.01" x1="0" y2="0.01" x2="10"/>
    <line y1="1" x1="0" y2="1" x2="10"/>
    <line y1="2" x1="0" y2="2" x2="10"/>
    <line y1="3" x1="0" y2="3" x2="10"/>
    <line y1="4" x1="0" y2="4" x2="10"/>
    <line y1="5" x1="0" y2="5" x2="10"/>
    <line y1="6" x1="0" y2="6" x2="10"/>
    <line y1="7" x1="0" y2="7" x2="10"/>
    <line y1="8" x1="0" y2="8" x2="10"/>
    <line y1="9" x1="0" y2="9" x2="10"/>
    <line y1="9.99" x1="0" y2="9.99" x2="10"/>
</g>

</svg>    