<svg xmlns="http://www.w3.org/2000/svg" xmlns:xlink="http://www.w3.org/1999/xlink" fill-opacity="1" color-rendering="auto" color-interpolation="auto" text-rendering="auto" stroke="black" stroke-linecap="square" width="617" stroke-miterlimit="10" shape-rendering="auto" stroke-opacity="1" fill="black" stroke-dasharray="none" font-weight="normal" stroke-width="1" height="464" font-family="'Dialog'" font-style="normal" stroke-linejoin="miter" font-size="12px" stroke-dashoffset="0" image-rendering="auto">
  <!--Generated by ySVG 2.5-->
  <defs id="genericDefs"/>
  <g>
    <defs id="defs1">
      <clipPath clipPathUnits="userSpaceOnUse" id="clipPath1">
        <path d="M0 0 L617 0 L617 464 L0 464 L0 0 Z"/>
      </clipPath>
    </defs>
    <g id="y.node.0">
      <a target="_blank" xlink:type="simple" xlink:href="#mineraloj" xlink:show="new">
        <g fill="rgb(204,234,244)" text-rendering="geometricPrecision" shape-rendering="geometricPrecision" transform="matrix(1,0,0,1,73,19)" stroke="rgb(204,234,244)">
          <rect x="57.6" width="104" height="33.84" y="-0" stroke="none"/>
        </g>
        <g text-rendering="geometricPrecision" stroke-miterlimit="1.45" shape-rendering="geometricPrecision" transform="matrix(1,0,0,1,73,19)" stroke-linecap="butt">
          <rect fill="none" x="57.6" width="104" height="33.84" y="-0"/>
        </g>
        <g>
          <g text-rendering="geometricPrecision" stroke-miterlimit="1.45" shape-rendering="geometricPrecision" font-family="sans-serif" transform="matrix(1,0,0,1,73,19)" stroke-linecap="butt">
            <text x="81.4457" xml:space="preserve" y="21.0743" stroke="none">mineraloj</text>
          </g>
        </g>
      </a>
    </g>
    <g id="y.node.1">
      <a target="_blank" xlink:type="simple" xlink:href="#fosfato" xlink:show="new">
        <g fill="rgb(204,234,244)" text-rendering="geometricPrecision" shape-rendering="geometricPrecision" transform="matrix(1,0,0,1,73,19)" stroke="rgb(204,234,244)">
          <rect x="57.6" width="104" height="33.84" y="92" stroke="none"/>
        </g>
        <g text-rendering="geometricPrecision" stroke-miterlimit="1.45" shape-rendering="geometricPrecision" transform="matrix(1,0,0,1,73,19)" stroke-linecap="butt">
          <rect fill="none" x="57.6" width="104" height="33.84" y="92"/>
        </g>
        <g>
          <g text-rendering="geometricPrecision" stroke-miterlimit="1.45" shape-rendering="geometricPrecision" font-family="sans-serif" transform="matrix(1,0,0,1,73,19)" stroke-linecap="butt">
            <text x="78.0707" xml:space="preserve" y="113.0743" stroke="none">fosfatjonoj</text>
          </g>
        </g>
      </a>
    </g>
    <g id="y.node.2">
      <a target="_blank" xlink:type="simple" xlink:href="#ferofosfato" xlink:show="new">
        <g fill="rgb(204,234,244)" text-rendering="geometricPrecision" shape-rendering="geometricPrecision" transform="matrix(1,0,0,1,73,19)" stroke="rgb(204,234,244)">
          <rect x="57.6" width="104" height="33.84" y="198.96" stroke="none"/>
        </g>
        <g text-rendering="geometricPrecision" stroke-miterlimit="1.45" shape-rendering="geometricPrecision" transform="matrix(1,0,0,1,73,19)" stroke-linecap="butt">
          <rect fill="none" x="57.6" width="104" height="33.84" y="198.96"/>
        </g>
        <g>
          <g text-rendering="geometricPrecision" stroke-miterlimit="1.45" shape-rendering="geometricPrecision" font-family="sans-serif" transform="matrix(1,0,0,1,73,19)" stroke-linecap="butt">
            <text x="76.9369" xml:space="preserve" y="220.0343" stroke="none">ferofosfato</text>
          </g>
        </g>
      </a>
    </g>
    <g id="y.node.3">
      <a target="_blank" xlink:type="simple" xlink:href="#plantoj" xlink:show="new">
        <g fill="rgb(204,234,244)" text-rendering="geometricPrecision" shape-rendering="geometricPrecision" transform="matrix(1,0,0,1,73,19)" stroke="rgb(204,234,244)">
          <rect x="-57.36" width="104" height="33.84" y="198.96" stroke="none"/>
        </g>
        <g text-rendering="geometricPrecision" stroke-miterlimit="1.45" shape-rendering="geometricPrecision" transform="matrix(1,0,0,1,73,19)" stroke-linecap="butt">
          <rect fill="none" x="-57.36" width="104" height="33.84" y="198.96"/>
        </g>
        <g>
          <g text-rendering="geometricPrecision" stroke-miterlimit="1.45" shape-rendering="geometricPrecision" font-family="sans-serif" transform="matrix(1,0,0,1,73,19)" stroke-linecap="butt">
            <text x="-33.1364" xml:space="preserve" y="220.0343" stroke="none">vegetaĵoj</text>
          </g>
        </g>
      </a>
    </g>
    <g id="y.node.4">
      <a target="_blank" xlink:type="simple" xlink:href="#bestoj" xlink:show="new">
        <g fill="rgb(204,234,244)" text-rendering="geometricPrecision" shape-rendering="geometricPrecision" transform="matrix(1,0,0,1,73,19)" stroke="rgb(204,234,244)">
          <rect x="57.6" width="104" height="30" y="305.92" stroke="none"/>
        </g>
        <g text-rendering="geometricPrecision" stroke-miterlimit="1.45" shape-rendering="geometricPrecision" transform="matrix(1,0,0,1,73,19)" stroke-linecap="butt">
          <rect fill="none" x="57.6" width="104" height="30" y="305.92"/>
        </g>
        <g>
          <g text-rendering="geometricPrecision" stroke-miterlimit="1.45" shape-rendering="geometricPrecision" font-family="sans-serif" transform="matrix(1,0,0,1,73,19)" stroke-linecap="butt">
            <text x="91.2836" xml:space="preserve" y="325.0743" stroke="none">bestoj</text>
          </g>
        </g>
      </a>
    </g>
    <g id="y.node.5">
      <a target="_blank" xlink:type="simple" xlink:href="#restoj" xlink:show="new">
        <g fill="rgb(204,234,244)" text-rendering="geometricPrecision" shape-rendering="geometricPrecision" transform="matrix(1,0,0,1,73,19)" stroke="rgb(204,234,244)">
          <rect x="310.36" width="86.2" height="33.84" y="198.96" stroke="none"/>
        </g>
        <g text-rendering="geometricPrecision" stroke-miterlimit="1.45" shape-rendering="geometricPrecision" transform="matrix(1,0,0,1,73,19)" stroke-linecap="butt">
          <rect fill="none" x="310.36" width="86.2" height="33.84" y="198.96"/>
        </g>
        <g>
          <g text-rendering="geometricPrecision" stroke-miterlimit="1.45" shape-rendering="geometricPrecision" font-family="sans-serif" transform="matrix(1,0,0,1,73,19)" stroke-linecap="butt">
            <text x="331.1416" xml:space="preserve" y="220.0343" stroke="none">restaĵoj</text>
          </g>
        </g>
      </a>
    </g>
    <g id="y.node.6">
      <a target="_blank" xlink:type="simple" xlink:href="#konsumado" xlink:show="new">
        <g fill="rgb(204,234,244)" text-rendering="geometricPrecision" shape-rendering="geometricPrecision" transform="matrix(1,0,0,1,73,19)" stroke="rgb(204,234,244)">
          <rect x="57.6" width="104" height="30" y="389.42" stroke="none"/>
        </g>
        <g text-rendering="geometricPrecision" stroke-miterlimit="1.45" shape-rendering="geometricPrecision" transform="matrix(1,0,0,1,73,19)" stroke-linecap="butt">
          <rect fill="none" x="57.6" width="104" height="30" y="389.42"/>
        </g>
        <g>
          <g text-rendering="geometricPrecision" stroke-miterlimit="1.45" shape-rendering="geometricPrecision" font-family="sans-serif" transform="matrix(1,0,0,1,73,19)" stroke-linecap="butt">
            <text x="74.7221" xml:space="preserve" y="408.5743" stroke="none">konsumado</text>
          </g>
        </g>
      </a>
    </g>
    <g id="y.node.7">
      <a target="_blank" xlink:type="simple" xlink:href="#detruantoj" xlink:show="new">
        <g fill="rgb(204,234,244)" text-rendering="geometricPrecision" shape-rendering="geometricPrecision" transform="matrix(1,0,0,1,73,19)" stroke="rgb(204,234,244)">
          <rect x="175.36" width="86.2" height="33.84" y="198.96" stroke="none"/>
        </g>
        <g text-rendering="geometricPrecision" stroke-miterlimit="1.45" shape-rendering="geometricPrecision" transform="matrix(1,0,0,1,73,19)" stroke-linecap="butt">
          <rect fill="none" x="175.36" width="86.2" height="33.84" y="198.96"/>
        </g>
        <g>
          <g text-rendering="geometricPrecision" stroke-miterlimit="1.45" shape-rendering="geometricPrecision" font-family="sans-serif" transform="matrix(1,0,0,1,73,19)" stroke-linecap="butt">
            <text x="196.9942" xml:space="preserve" y="213.0499" stroke="none">detruaj</text>
            <text x="185.0586" xml:space="preserve" y="227.0187" stroke="none">organismoj</text>
          </g>
        </g>
      </a>
    </g>
    <g id="y.node.8">
      <a target="_blank" xlink:type="simple" xlink:href="#sterko" xlink:show="new">
        <g fill="rgb(204,234,244)" text-rendering="geometricPrecision" shape-rendering="geometricPrecision" transform="matrix(1,0,0,1,73,19)" stroke="rgb(204,234,244)">
          <rect x="-57.36" width="104" height="33.84" y="52.42" stroke="none"/>
        </g>
        <g text-rendering="geometricPrecision" stroke-miterlimit="1.45" shape-rendering="geometricPrecision" transform="matrix(1,0,0,1,73,19)" stroke-linecap="butt">
          <rect fill="none" x="-57.36" width="104" height="33.84" y="52.42"/>
        </g>
        <g>
          <g text-rendering="geometricPrecision" stroke-miterlimit="1.45" shape-rendering="geometricPrecision" font-family="sans-serif" transform="matrix(1,0,0,1,73,19)" stroke-linecap="butt">
            <text x="-25.8092" xml:space="preserve" y="73.4943" stroke="none">sterkoj</text>
          </g>
        </g>
      </a>
    </g>
    <g id="y.node.9">
      <g fill="rgb(153,51,0)" text-rendering="geometricPrecision" shape-rendering="geometricPrecision" transform="matrix(1,0,0,1,73,19)" stroke="rgb(153,51,0)">
        <path d="M463 429.42 L465.5 45.92 L470.5 45.92 L473 429.42 Z" stroke="none" fill-rule="evenodd"/>
      </g>
      <g text-rendering="geometricPrecision" stroke-miterlimit="1.45" shape-rendering="geometricPrecision" transform="matrix(1,0,0,1,73,19)" stroke-linecap="butt">
        <path fill="none" d="M463 429.42 L465.5 45.92 L470.5 45.92 L473 429.42 Z" fill-rule="evenodd"/>
      </g>
      <g/>
    </g>
    <g id="y.node.10">
      <a target="_blank" xlink:type="simple" xlink:href="#nun" xlink:show="new">
        <g fill="rgb(153,204,0)" text-rendering="geometricPrecision" shape-rendering="geometricPrecision" transform="matrix(1,0,0,1,73,19)" stroke="rgb(153,204,0)">
          <rect x="419" y="52.42" width="104" rx="4" ry="4" height="43.5" stroke="none"/>
        </g>
        <g text-rendering="geometricPrecision" stroke-miterlimit="1.45" shape-rendering="geometricPrecision" transform="matrix(1,0,0,1,73,19)" stroke-linecap="butt">
          <rect x="419" y="52.42" fill="none" width="104" rx="4" ry="4" height="43.5"/>
        </g>
        <g>
          <g text-rendering="geometricPrecision" stroke-miterlimit="1.45" shape-rendering="geometricPrecision" font-family="sans-serif" transform="matrix(1,0,0,1,73,19)" stroke-linecap="butt">
            <text x="442.8457" xml:space="preserve" y="78.3243" stroke="none">mineraloj</text>
          </g>
        </g>
      </a>
    </g>
    <g id="y.node.11">
      <a target="_blank" xlink:type="simple" xlink:href="#dekstren" xlink:show="new">
        <g fill="rgb(204,255,153)" text-rendering="geometricPrecision" shape-rendering="geometricPrecision" transform="matrix(1,0,0,1,73,19)" stroke="rgb(204,255,153)">
          <path d="M419 101.55 L518 101.55 L529 118.47 L518 135.39 L419 135.39 L430 118.47 Z" stroke="none" fill-rule="evenodd"/>
        </g>
        <g text-rendering="geometricPrecision" stroke-miterlimit="1.45" shape-rendering="geometricPrecision" transform="matrix(1,0,0,1,73,19)" stroke-linecap="butt">
          <path fill="none" d="M419 101.55 L518 101.55 L529 118.47 L518 135.39 L419 135.39 L430 118.47 Z" fill-rule="evenodd"/>
        </g>
        <g>
          <g text-rendering="geometricPrecision" stroke-miterlimit="1.45" shape-rendering="geometricPrecision" font-family="sans-serif" transform="matrix(1,0,0,1,73,19)" stroke-linecap="butt">
            <text x="442.4707" xml:space="preserve" y="122.6243" stroke="none">fosfatjonoj</text>
          </g>
        </g>
      </a>
    </g>
    <g id="y.node.12">
      <a target="_blank" xlink:type="simple" xlink:href="#maldekstren" xlink:show="new">
        <g fill="rgb(204,255,153)" text-rendering="geometricPrecision" shape-rendering="geometricPrecision" transform="matrix(1,0,0,1,73,19)" stroke="rgb(204,255,153)">
          <path d="M415 141.02 L514 141.02 L503 157.94 L514 174.86 L415 174.86 L404 157.94 Z" stroke="none" fill-rule="evenodd"/>
        </g>
        <g text-rendering="geometricPrecision" stroke-miterlimit="1.45" shape-rendering="geometricPrecision" transform="matrix(1,0,0,1,73,19)" stroke-linecap="butt">
          <path fill="none" d="M415 141.02 L514 141.02 L503 157.94 L514 174.86 L415 174.86 L404 157.94 Z" fill-rule="evenodd"/>
        </g>
        <g>
          <g text-rendering="geometricPrecision" stroke-miterlimit="1.45" shape-rendering="geometricPrecision" font-family="sans-serif" transform="matrix(1,0,0,1,73,19)" stroke-linecap="butt">
            <text x="438.5508" xml:space="preserve" y="162.0943" stroke="none">sterkoj</text>
          </g>
        </g>
      </a>
    </g>
    <g id="y.node.13">
      <a target="_blank" xlink:type="simple" xlink:href="#rondvojo" xlink:show="new">
        <g fill="rgb(153,204,0)" text-rendering="geometricPrecision" shape-rendering="geometricPrecision" transform="matrix(1,0,0,1,73,19)" stroke="rgb(153,204,0)">
          <path d="M409 200.1367 L421 183.2167 L517 183.2167 L529 200.1367 L517 217.0567 L421 217.0567 Z" stroke="none" fill-rule="evenodd"/>
        </g>
        <g text-rendering="geometricPrecision" stroke-miterlimit="1.45" shape-rendering="geometricPrecision" transform="matrix(1,0,0,1,73,19)" stroke-linecap="butt">
          <path fill="none" d="M409 200.1367 L421 183.2167 L517 183.2167 L529 200.1367 L517 217.0567 L421 217.0567 Z" fill-rule="evenodd"/>
        </g>
        <g/>
        <g>
          <g text-rendering="geometricPrecision" stroke-miterlimit="1.45" shape-rendering="geometricPrecision" font-family="sans-serif" transform="matrix(1,0,0,1,73,19)" stroke-linecap="butt">
            <text x="437.4707" xml:space="preserve" y="197.3066" stroke="none">fosfatjonoj</text>
            <text x="438.0098" xml:space="preserve" y="211.2753" stroke="none">(rondvojo)</text>
          </g>
        </g>
      </a>
    </g>
    <g id="y.edge.0">
      <g text-rendering="geometricPrecision" stroke-miterlimit="1.45" stroke-width="2" shape-rendering="geometricPrecision" transform="matrix(1,0,0,1,73,19)" stroke-linecap="butt">
        <path fill="none" d="M109.6 33.84 L109.6 83"/>
        <path d="M109.6 92 L115.225 78.5 L109.6 81.875 L103.975 78.5 Z" stroke="none"/>
      </g>
      <g>
        <g text-rendering="geometricPrecision" stroke-miterlimit="1.45" shape-rendering="geometricPrecision" font-family="sans-serif" transform="matrix(1,0,0,1,73,19)" stroke-linecap="butt">
          <text x="121.2836" xml:space="preserve" y="67.0743" stroke="none">erozio</text>
        </g>
      </g>
    </g>
    <g id="y.edge.1">
      <g text-rendering="geometricPrecision" stroke-miterlimit="1.45" shape-rendering="geometricPrecision" transform="matrix(1,0,0,1,73,19)" stroke-linecap="butt">
        <path fill="none" d="M95.529 125.8683 L95.037 126.5556 L91.9239 131.1749 L89.0625 135.7812 L86.5032 140.372 L84.2963 144.9444 L82.4922 149.4961 L81.1412 154.0243 L80.2937 158.5265 L80 163 L80.2937 167.4431 L81.1412 171.8576 L82.4922 176.2461 L84.2963 180.6111 L86.5032 184.9553 L89.0625 189.2812 L91.159 192.4394 L91.2182 192.52"/>
        <path d="M95.8983 199.0082 L92.9333 186.3508 L90.6332 191.709 L84.823 192.2009 Z" stroke="none"/>
      </g>
      <g>
        <g text-rendering="geometricPrecision" stroke-miterlimit="1.45" shape-rendering="geometricPrecision" font-family="sans-serif" transform="matrix(1,0,0,1,73,19)" stroke-linecap="butt">
          <text x="66.4213" xml:space="preserve" y="143.9787" stroke="none">oksigena</text>
        </g>
      </g>
    </g>
    <g id="y.edge.2">
      <g text-rendering="geometricPrecision" stroke-miterlimit="1.45" shape-rendering="geometricPrecision" transform="matrix(1,0,0,1,73,19)" stroke-linecap="butt">
        <path fill="none" d="M122.8557 198.9402 L124.8889 196.4444 L128.4314 191.8251 L131.6875 187.2188 L134.5998 182.628 L137.1111 178.0556 L139.1641 173.5039 L140.7014 168.9757 L141.6658 164.4735 L142 160 L141.6658 155.5569 L140.7014 151.1424 L139.1641 146.7539 L137.1111 142.3889 L134.5998 138.0447 L131.6875 133.7188 L130.4484 132.0784 L130.3848 132.0013"/>
        <path d="M125.4079 125.7378 L128.9586 138.2435 L131.0069 132.7842 L136.7879 132.0224 Z" stroke="none"/>
      </g>
      <g>
        <g text-rendering="geometricPrecision" stroke-miterlimit="1.45" shape-rendering="geometricPrecision" font-family="sans-serif" transform="matrix(1,0,0,1,73,19)" stroke-linecap="butt">
          <text x="118.4244" xml:space="preserve" y="177.1299" stroke="none">sen-</text>
          <text x="104.2916" xml:space="preserve" y="191.0987" stroke="none">oksigena</text>
        </g>
      </g>
    </g>
    <g id="y.edge.3">
      <g text-rendering="geometricPrecision" stroke-miterlimit="1.45" stroke-width="2" shape-rendering="geometricPrecision" transform="matrix(1,0,0,1,73,19)" stroke-linecap="butt">
        <path fill="none" d="M57.6074 114.7687 L55.4074 114.8148 L47.7215 115.2242 L40.3438 115.9375 L33.3358 117.0153 L26.7593 118.5185 L20.6758 120.5078 L15.147 123.044 L10.2345 126.1878 L6 130 L2.4845 134.5211 L-0.353 139.7106 L-2.5742 145.5078 L-4.2407 151.8519 L-5.4142 158.682 L-6.1562 165.9375 L-6.5285 173.5576 L-6.5926 181.4815 L-6.4102 189.6484 L-6.3962 189.9666 L-6.3904 190.0664"/>
        <path d="M-5.9827 199.0572 L-0.975 185.3162 L-6.4413 188.9426 L-12.2134 185.8258 Z" stroke="none"/>
      </g>
    </g>
    <g id="y.edge.4">
      <g text-rendering="geometricPrecision" stroke-miterlimit="1.45" stroke-width="2" shape-rendering="geometricPrecision" transform="matrix(1,0,0,1,73,19)" stroke-linecap="butt">
        <path fill="none" d="M-5.6732 232.7999 L-5.8047 240.0586 L-5.7407 248.1481 L-5.3921 256.012 L-4.6875 263.5938 L-3.5558 270.8369 L-1.9259 277.6852 L0.2734 284.082 L3.1134 289.9711 L6.6652 295.2959 L11 300 L16.1652 304.0459 L22.1134 307.4711 L28.7734 310.332 L36.0741 312.6852 L43.9442 314.5869 L48.6715 315.4382 L48.7707 315.4513"/>
        <path d="M57.668 316.807 L45.1693 309.2126 L47.6585 315.2819 L43.4747 320.3343 Z" stroke="none"/>
      </g>
    </g>
    <g id="y.edge.5">
      <g text-rendering="geometricPrecision" stroke-miterlimit="1.45" stroke-width="2" shape-rendering="geometricPrecision" transform="matrix(1,0,0,1,73,19)" stroke-linecap="butt">
        <path fill="none" d="M161.6054 320.5937 L171.4453 320.6445 L191.5556 320.5555 L211.0616 320.2062 L229.8125 319.5312 L247.6571 318.4657 L264.4445 316.9445 L280.0234 314.9023 L294.243 312.2743 L306.9523 308.9952 L318 305 L327.2856 300.2452 L334.9097 294.7743 L341.0234 288.6523 L345.7778 281.9445 L349.3238 274.7157 L351.8125 267.0312 L353.395 258.9562 L354.2222 250.5555 L354.4453 241.8945 L354.4426 241.7892 L354.4366 241.6894"/>
        <path d="M354.1981 232.6926 L348.9329 246.3369 L354.4665 242.814 L360.179 246.0387 Z" stroke="none"/>
      </g>
    </g>
    <g id="y.edge.6">
      <g text-rendering="geometricPrecision" stroke-miterlimit="1.45" stroke-width="2" shape-rendering="geometricPrecision" transform="matrix(1,0,0,1,73,19)" stroke-linecap="butt">
        <path fill="none" d="M328.0433 198.9504 L328.0185 194.2049 L327.75 185.457 L327.1482 176.8889 L326.1019 168.5603 L324.5 160.5312 L322.2315 152.8615 L319.1852 145.6111 L315.25 138.8398 L310.3148 132.6076 L304.2685 126.9744 L297 122 L288.4352 117.7244 L278.6481 114.1076 L267.75 111.0898 L255.8518 108.6111 L243.0648 106.6115 L229.5 105.0312 L215.2685 103.8103 L200.4815 102.8889 L185.25 102.207 L170.573 101.7335 L170.473 101.7311"/>
        <path d="M161.4759 101.5059 L174.8309 107.4669 L171.5977 101.7592 L175.1124 96.2204 Z" stroke="none"/>
      </g>
    </g>
    <g id="y.edge.11">
      <g text-rendering="geometricPrecision" stroke-miterlimit="1.45" shape-rendering="geometricPrecision" transform="matrix(1,0,0,1,73,19)" stroke-linecap="butt">
        <path fill="none" d="M353.1797 198.9577 L353.1843 198.5398 L353.2245 182.1933 L352.9766 166.0742 L352.2963 150.2963 L351.0396 134.9732 L349.0625 120.2188 L346.2208 106.1466 L342.3704 92.8704 L337.3672 80.5039 L331.0671 69.1609 L323.3261 58.955 L314 50 L302.9928 42.3717 L290.4005 35.9942 L276.3672 30.7539 L261.037 26.537 L244.5541 23.2299 L227.0625 20.7188 L208.7063 18.8899 L189.6296 17.6296 L169.9766 16.8242 L169.6186 16.8159"/>
        <path d="M161.6207 16.6311 L173.502 21.907 L170.6183 16.8391 L173.7331 11.9097 Z" stroke="none"/>
      </g>
      <g>
        <g text-rendering="geometricPrecision" stroke-miterlimit="1.45" shape-rendering="geometricPrecision" font-family="sans-serif" transform="matrix(1,0,0,1,73,19)" stroke-linecap="butt">
          <text x="190.2088" xml:space="preserve" y="10.1003" stroke="none">sedimentiĝo</text>
        </g>
      </g>
    </g>
    <g id="y.edge.8">
      <g text-rendering="geometricPrecision" stroke-miterlimit="1.45" shape-rendering="geometricPrecision" transform="matrix(1,0,0,1,73,19)" stroke-linecap="butt">
        <path fill="none" d="M109.6 335.92 L109.6 381.42"/>
        <path d="M109.6 389.42 L114.6 377.42 L109.6 380.42 L104.6 377.42 Z" stroke="none"/>
      </g>
    </g>
    <g id="y.edge.7">
      <g text-rendering="geometricPrecision" stroke-miterlimit="1.45" shape-rendering="geometricPrecision" transform="matrix(1,0,0,1,73,19)" stroke-linecap="butt">
        <path fill="none" d="M-28.9731 232.7826 L-28.9683 235.0453 L-28.8715 249.9873 L-28.6445 264.7227 L-28.2222 279.1481 L-27.5395 293.1605 L-26.5312 306.6562 L-25.1324 319.5323 L-23.2778 331.6852 L-20.9023 343.0117 L-17.941 353.4086 L-14.3286 362.7724 L-10 371 L-4.9119 378.0224 L0.8924 383.9086 L7.3477 388.7617 L14.3889 392.6852 L21.951 395.7823 L29.9688 398.1562 L38.3772 399.9104 L47.1111 401.1481 L49.6061 401.3769 L49.7059 401.3824"/>
        <path d="M57.6768 402.0636 L46.1461 396.06 L48.7095 401.2973 L45.2947 406.0237 Z" stroke="none"/>
      </g>
    </g>
    <g id="y.edge.9">
      <g text-rendering="geometricPrecision" stroke-miterlimit="1.45" shape-rendering="geometricPrecision" transform="matrix(1,0,0,1,73,19)" stroke-linecap="butt">
        <path fill="none" d="M310.36 215.88 L269.56 215.88"/>
        <path d="M261.56 215.88 L273.56 220.88 L270.56 215.88 L273.56 210.88 Z" stroke="none"/>
      </g>
    </g>
    <g id="y.edge.10">
      <g text-rendering="geometricPrecision" stroke-miterlimit="1.45" shape-rendering="geometricPrecision" transform="matrix(1,0,0,1,73,19)" stroke-linecap="butt">
        <path fill="none" d="M239.3093 198.935 L239.3125 198.7269 L239.2734 191.2031 L239 183.8148 L238.4141 176.6071 L237.4375 169.625 L235.9922 162.9138 L234 156.5185 L231.3828 150.4844 L228.0625 144.8565 L223.9609 139.68 L219 135 L213.1276 130.8466 L206.3958 127.1898 L198.8828 123.9844 L190.6667 121.1852 L181.8255 118.7471 L172.4375 116.625 L169.4478 116.0635 L169.349 116.0478"/>
        <path d="M161.4817 114.5968 L172.3758 121.6904 L170.3324 116.2292 L174.1895 111.8562 Z" stroke="none"/>
      </g>
    </g>
    <g id="y.edge.12">
      <g text-rendering="geometricPrecision" stroke-miterlimit="1.45" shape-rendering="geometricPrecision" transform="matrix(1,0,0,1,73,19)" stroke-linecap="butt">
        <path fill="none" d="M57.5691 16.9309 L52.3125 17.2188 L43.9442 17.8827 L36.0741 18.7593 L28.7734 19.8789 L22.1134 21.272 L16.1652 22.9689 L11 25 L6.6652 27.3856 L3.1134 30.1053 L0.2734 33.1289 L-1.9259 36.4259 L-3.5558 39.966 L-4.6875 43.7188 L-4.8247 44.485 L-4.8322 44.5848"/>
        <path d="M-5.7629 52.5304 L0.5992 41.1936 L-4.7159 43.5915 L-9.3329 40.0303 Z" stroke="none"/>
      </g>
    </g>
    <g id="y.edge.13">
      <g text-rendering="geometricPrecision" stroke-miterlimit="1.45" shape-rendering="geometricPrecision" transform="matrix(1,0,0,1,73,19)" stroke-linecap="butt">
        <path fill="none" d="M-2.3807 86.2878 L-1.9039 88.1905 L-0.75 91.6562 L0.6956 94.9188 L2.4815 97.9444 L4.6562 100.6992 L7.2685 103.1493 L10.3669 105.2608 L14 107 L18.2002 108.3442 L22.9352 109.316 L28.1563 109.9492 L33.8148 110.2778 L39.8623 110.3355 L46.25 110.1562 L49.6272 109.9629 L49.7269 109.955"/>
        <path d="M57.7072 109.3941 L45.3862 105.2477 L48.7294 110.0251 L46.0873 115.2231 Z" stroke="none"/>
      </g>
    </g>
  </g>
</svg>
