<svg xmlns="http://www.w3.org/2000/svg" xmlns:xlink="http://www.w3.org/1999/xlink" fill-opacity="1" color-rendering="auto" color-interpolation="auto" text-rendering="auto" stroke="black" stroke-linecap="square" width="642" stroke-miterlimit="10" shape-rendering="auto" stroke-opacity="1" fill="black" stroke-dasharray="none" font-weight="normal" stroke-width="1" height="373" font-family="'Dialog'" font-style="normal" stroke-linejoin="miter" font-size="12px" stroke-dashoffset="0" image-rendering="auto">
  <!--Generated by ySVG 2.5-->
  <defs id="genericDefs"/>
  <g>
    <defs id="defs1">
      <clipPath clipPathUnits="userSpaceOnUse" id="clipPath1">
        <path d="M0 0 L642 0 L642 373 L0 373 L0 0 Z"/>
      </clipPath>
    </defs>
    <g id="y.node.0">
      <a target="_blank" xlink:type="simple" xlink:href="#atmosfero" xlink:show="new">
        <g fill="rgb(204,234,244)" text-rendering="geometricPrecision" shape-rendering="geometricPrecision" transform="matrix(1,0,0,1,133,22)" stroke="rgb(204,234,244)">
          <rect x="91.7214" width="104" height="33.84" y="-0" stroke="none"/>
        </g>
        <g text-rendering="geometricPrecision" stroke-miterlimit="1.45" shape-rendering="geometricPrecision" transform="matrix(1,0,0,1,133,22)" stroke-linecap="butt">
          <rect fill="none" x="91.7214" width="104" height="33.84" y="-0"/>
        </g>
        <g>
          <g text-rendering="geometricPrecision" stroke-miterlimit="1.45" shape-rendering="geometricPrecision" font-family="sans-serif" transform="matrix(1,0,0,1,133,22)" stroke-linecap="butt">
            <text x="113.1032" xml:space="preserve" y="14.0899" stroke="none">atmosfera</text>
            <text x="123.073" xml:space="preserve" y="28.0587" stroke="none">sulfuro</text>
          </g>
        </g>
      </a>
    </g>
    <g id="y.node.1">
      <a target="_blank" xlink:type="simple" xlink:href="#sulfato" xlink:show="new">
        <g fill="rgb(204,234,244)" text-rendering="geometricPrecision" shape-rendering="geometricPrecision" transform="matrix(1,0,0,1,133,22)" stroke="rgb(204,234,244)">
          <rect x="91.7214" width="104" height="33.84" y="92" stroke="none"/>
        </g>
        <g text-rendering="geometricPrecision" stroke-miterlimit="1.45" shape-rendering="geometricPrecision" transform="matrix(1,0,0,1,133,22)" stroke-linecap="butt">
          <rect fill="none" x="91.7214" width="104" height="33.84" y="92"/>
        </g>
        <g>
          <g text-rendering="geometricPrecision" stroke-miterlimit="1.45" shape-rendering="geometricPrecision" font-family="sans-serif" transform="matrix(1,0,0,1,133,22)" stroke-linecap="butt">
            <text x="123.3132" xml:space="preserve" y="113.0743" stroke="none">sulfato</text>
          </g>
        </g>
      </a>
    </g>
    <g id="y.node.2">
      <a target="_blank" xlink:type="simple" xlink:href="#organismoj" xlink:show="new">
        <g fill="rgb(204,234,244)" text-rendering="geometricPrecision" shape-rendering="geometricPrecision" transform="matrix(1,0,0,1,133,22)" stroke="rgb(204,234,244)">
          <rect x="244.36" width="86.2" height="33.84" y="198.96" stroke="none"/>
        </g>
        <g text-rendering="geometricPrecision" stroke-miterlimit="1.45" shape-rendering="geometricPrecision" transform="matrix(1,0,0,1,133,22)" stroke-linecap="butt">
          <rect fill="none" x="244.36" width="86.2" height="33.84" y="198.96"/>
        </g>
        <g>
          <g text-rendering="geometricPrecision" stroke-miterlimit="1.45" shape-rendering="geometricPrecision" font-family="sans-serif" transform="matrix(1,0,0,1,133,22)" stroke-linecap="butt">
            <text x="254.0586" xml:space="preserve" y="220.0343" stroke="none">organismoj</text>
          </g>
        </g>
      </a>
    </g>
    <g id="y.node.3">
      <g fill="rgb(153,51,0)" text-rendering="geometricPrecision" shape-rendering="geometricPrecision" transform="matrix(1,0,0,1,133,22)" stroke="rgb(153,51,0)">
        <path d="M427.2 335.92 L429.7 -6.5 L434.7 -6.5 L437.2 335.92 Z" stroke="none" fill-rule="evenodd"/>
      </g>
      <g text-rendering="geometricPrecision" stroke-miterlimit="1.45" shape-rendering="geometricPrecision" transform="matrix(1,0,0,1,133,22)" stroke-linecap="butt">
        <path fill="none" d="M427.2 335.92 L429.7 -6.5 L434.7 -6.5 L437.2 335.92 Z" fill-rule="evenodd"/>
      </g>
      <g/>
    </g>
    <g id="y.node.4">
      <a target="_blank" xlink:type="simple" xlink:href="#nun" xlink:show="new">
        <g fill="rgb(153,204,0)" text-rendering="geometricPrecision" shape-rendering="geometricPrecision" transform="matrix(1,0,0,1,133,22)" stroke="rgb(153,204,0)">
          <rect x="383.2" y="-0" width="104" rx="4" ry="4" height="43.5" stroke="none"/>
        </g>
        <g text-rendering="geometricPrecision" stroke-miterlimit="1.45" shape-rendering="geometricPrecision" transform="matrix(1,0,0,1,133,22)" stroke-linecap="butt">
          <rect x="383.2" y="-0" fill="none" width="104" rx="4" ry="4" height="43.5"/>
        </g>
        <g>
          <g text-rendering="geometricPrecision" stroke-miterlimit="1.45" shape-rendering="geometricPrecision" font-family="sans-serif" transform="matrix(1,0,0,1,133,22)" stroke-linecap="butt">
            <text x="407.0457" xml:space="preserve" y="25.9043" stroke="none">mineraloj</text>
          </g>
        </g>
      </a>
    </g>
    <g id="y.node.5">
      <a target="_blank" xlink:type="simple" xlink:href="#dekstren" xlink:show="new">
        <g fill="rgb(204,255,153)" text-rendering="geometricPrecision" shape-rendering="geometricPrecision" transform="matrix(1,0,0,1,133,22)" stroke="rgb(204,255,153)">
          <path d="M383.2 49.13 L482.2 49.13 L493.2 66.05 L482.2 82.97 L383.2 82.97 L394.2 66.05 Z" stroke="none" fill-rule="evenodd"/>
        </g>
        <g text-rendering="geometricPrecision" stroke-miterlimit="1.45" shape-rendering="geometricPrecision" transform="matrix(1,0,0,1,133,22)" stroke-linecap="butt">
          <path fill="none" d="M383.2 49.13 L482.2 49.13 L493.2 66.05 L482.2 82.97 L383.2 82.97 L394.2 66.05 Z" fill-rule="evenodd"/>
        </g>
        <g>
          <g text-rendering="geometricPrecision" stroke-miterlimit="1.45" shape-rendering="geometricPrecision" font-family="sans-serif" transform="matrix(1,0,0,1,133,22)" stroke-linecap="butt">
            <text x="417.7918" xml:space="preserve" y="70.2043" stroke="none">sulfato</text>
          </g>
        </g>
      </a>
    </g>
    <g id="y.node.6">
      <a target="_blank" xlink:type="simple" xlink:href="#maldekstren" xlink:show="new">
        <g fill="rgb(204,255,153)" text-rendering="geometricPrecision" shape-rendering="geometricPrecision" transform="matrix(1,0,0,1,133,22)" stroke="rgb(204,255,153)">
          <path d="M379.2 88.6 L478.2 88.6 L467.2 105.52 L478.2 122.44 L379.2 122.44 L368.2 105.52 Z" stroke="none" fill-rule="evenodd"/>
        </g>
        <g text-rendering="geometricPrecision" stroke-miterlimit="1.45" shape-rendering="geometricPrecision" transform="matrix(1,0,0,1,133,22)" stroke-linecap="butt">
          <path fill="none" d="M379.2 88.6 L478.2 88.6 L467.2 105.52 L478.2 122.44 L379.2 122.44 L368.2 105.52 Z" fill-rule="evenodd"/>
        </g>
        <g>
          <g text-rendering="geometricPrecision" stroke-miterlimit="1.45" shape-rendering="geometricPrecision" font-family="sans-serif" transform="matrix(1,0,0,1,133,22)" stroke-linecap="butt">
            <text x="396.8358" xml:space="preserve" y="109.6743" stroke="none">industrio</text>
          </g>
        </g>
      </a>
    </g>
    <g id="y.node.7">
      <a target="_blank" xlink:type="simple" xlink:href="#rondvojo" xlink:show="new">
        <g fill="rgb(153,204,0)" text-rendering="geometricPrecision" shape-rendering="geometricPrecision" transform="matrix(1,0,0,1,133,22)" stroke="rgb(153,204,0)">
          <path d="M373.2 147.7167 L385.2 130.7967 L481.2 130.7967 L493.2 147.7167 L481.2 164.6367 L385.2 164.6367 Z" stroke="none" fill-rule="evenodd"/>
        </g>
        <g text-rendering="geometricPrecision" stroke-miterlimit="1.45" shape-rendering="geometricPrecision" transform="matrix(1,0,0,1,133,22)" stroke-linecap="butt">
          <path fill="none" d="M373.2 147.7167 L385.2 130.7967 L481.2 130.7967 L493.2 147.7167 L481.2 164.6367 L385.2 164.6367 Z" fill-rule="evenodd"/>
        </g>
        <g/>
        <g>
          <g text-rendering="geometricPrecision" stroke-miterlimit="1.45" shape-rendering="geometricPrecision" font-family="sans-serif" transform="matrix(1,0,0,1,133,22)" stroke-linecap="butt">
            <text x="412.4783" xml:space="preserve" y="144.8866" stroke="none">fosfato</text>
            <text x="402.2098" xml:space="preserve" y="158.8553" stroke="none">(rondvojo)</text>
          </g>
        </g>
      </a>
    </g>
    <g id="y.node.8">
      <a target="_blank" xlink:type="simple" xlink:href="#mineraloj" xlink:show="new">
        <g fill="rgb(204,234,244)" text-rendering="geometricPrecision" shape-rendering="geometricPrecision" transform="matrix(1,0,0,1,133,22)" stroke="rgb(204,234,244)">
          <rect x="-118" width="92" height="33.84" y="198.96" stroke="none"/>
        </g>
        <g text-rendering="geometricPrecision" stroke-miterlimit="1.45" shape-rendering="geometricPrecision" transform="matrix(1,0,0,1,133,22)" stroke-linecap="butt">
          <rect fill="none" x="-118" width="92" height="33.84" y="198.96"/>
        </g>
        <g>
          <g text-rendering="geometricPrecision" stroke-miterlimit="1.45" shape-rendering="geometricPrecision" font-family="sans-serif" transform="matrix(1,0,0,1,133,22)" stroke-linecap="butt">
            <text x="-100.1543" xml:space="preserve" y="220.0343" stroke="none">mineraloj</text>
          </g>
        </g>
      </a>
    </g>
    <g id="y.node.9">
      <a target="_blank" xlink:type="simple" xlink:href="#industrio" xlink:show="new">
        <g fill="rgb(204,234,244)" text-rendering="geometricPrecision" shape-rendering="geometricPrecision" transform="matrix(1,0,0,1,133,22)" stroke="rgb(204,234,244)">
          <rect x="-118" width="92" height="33.84" y="-0" stroke="none"/>
        </g>
        <g text-rendering="geometricPrecision" stroke-miterlimit="1.45" shape-rendering="geometricPrecision" transform="matrix(1,0,0,1,133,22)" stroke-linecap="butt">
          <rect fill="none" x="-118" width="92" height="33.84" y="-0"/>
        </g>
        <g>
          <g text-rendering="geometricPrecision" stroke-miterlimit="1.45" shape-rendering="geometricPrecision" font-family="sans-serif" transform="matrix(1,0,0,1,133,22)" stroke-linecap="butt">
            <text x="-98.3643" xml:space="preserve" y="21.0743" stroke="none">industrio</text>
          </g>
        </g>
      </a>
    </g>
    <g id="y.edge.0">
      <g text-rendering="geometricPrecision" stroke-miterlimit="1.45" shape-rendering="geometricPrecision" transform="matrix(1,0,0,1,133,22)" stroke-linecap="butt">
        <path fill="none" d="M143.7214 33.84 L143.7214 84"/>
        <path d="M143.7214 92 L148.7214 80 L143.7214 83 L138.7214 80 Z" stroke="none"/>
      </g>
      <g>
        <g text-rendering="geometricPrecision" stroke-miterlimit="1.45" shape-rendering="geometricPrecision" font-family="sans-serif" transform="matrix(1,0,0,1,133,22)" stroke-linecap="butt">
          <text x="157.2214" xml:space="preserve" y="67.0743" stroke="none">pluvo</text>
        </g>
      </g>
    </g>
    <g id="y.edge.3">
      <g text-rendering="geometricPrecision" stroke-miterlimit="1.45" shape-rendering="geometricPrecision" transform="matrix(1,0,0,1,133,22)" stroke-linecap="butt">
        <path fill="none" d="M143.7214 125.8388 L143.7214 167.748 L143.9741 173.5765 L144.7321 179.0289 L145.9954 184.1054 L147.7641 188.8058 L150.0381 193.1301 L152.8174 197.0784 L156.102 200.6507 L159.892 203.847 L164.1873 206.6672 L168.988 209.1114 L174.2939 211.1796 L180.1052 212.8717 L193.2439 215.1279 L208.4038 215.88 L236.3419 215.88"/>
        <path d="M244.3419 215.88 L232.3419 210.88 L235.3419 215.88 L232.3419 220.88 Z" stroke="none"/>
      </g>
      <g>
        <g text-rendering="geometricPrecision" stroke-miterlimit="1.45" shape-rendering="geometricPrecision" font-family="sans-serif" transform="matrix(1,0,0,1,133,22)" stroke-linecap="butt">
          <text x="144.9167" xml:space="preserve" y="143.9787" stroke="none">asimilado</text>
        </g>
      </g>
    </g>
    <g id="y.edge.2">
      <g text-rendering="geometricPrecision" stroke-miterlimit="1.45" shape-rendering="geometricPrecision" transform="matrix(1,0,0,1,133,22)" stroke-linecap="butt">
        <path fill="none" d="M287.46 198.9689 L287.46 106.452 L287.2073 95.6102 L286.4493 85.4679 L285.186 76.0251 L283.4174 67.2817 L281.1433 59.2379 L278.364 51.8934 L275.0794 45.2485 L271.2894 39.303 L266.9941 34.057 L262.1935 29.5104 L256.8875 25.6634 L251.0762 22.5157 L244.7595 20.0676 L237.9376 18.3189 L230.6103 17.2697 L222.7776 16.92 L203.7179 16.92"/>
        <path d="M195.7179 16.92 L207.7179 21.92 L204.7179 16.92 L207.7179 11.92 Z" stroke="none"/>
      </g>
    </g>
    <g id="y.edge.7">
      <g text-rendering="geometricPrecision" stroke-miterlimit="1.45" shape-rendering="geometricPrecision" transform="matrix(1,0,0,1,133,22)" stroke-linecap="butt">
        <path fill="none" d="M264.0353 198.9569 L264.0353 155.5906 L263.1894 144.6522 L262.1319 139.7299 L260.6515 135.1722 L258.7481 130.9792 L256.4217 127.1507 L253.6723 123.6869 L250.5 120.5876 L246.9047 117.853 L242.8864 115.4831 L233.5809 111.8369 L222.5834 109.6492 L209.8941 108.92 L203.7096 108.92"/>
        <path d="M195.7096 108.92 L207.7096 113.92 L204.7096 108.92 L207.7096 103.92 Z" stroke="none"/>
      </g>
    </g>
    <g id="y.edge.6">
      <g text-rendering="geometricPrecision" stroke-miterlimit="1.45" shape-rendering="geometricPrecision" transform="matrix(1,0,0,1,133,22)" stroke-linecap="butt">
        <path fill="none" d="M106.1214 125.8145 L106.1214 171.159 L105.8083 176.5744 L104.869 181.6405 L103.3035 186.3572 L101.1117 190.7244 L98.2938 194.7424 L94.8497 198.4109 L90.7793 201.73 L86.0828 204.6998 L80.76 207.3201 L74.811 209.5911 L61.0344 213.0849 L44.753 215.1812 L25.9668 215.88 L-18.0302 215.88"/>
        <path d="M-26.0302 215.88 L-14.0302 220.88 L-17.0302 215.88 L-14.0302 210.88 Z" stroke="none"/>
      </g>
      <g>
        <g text-rendering="geometricPrecision" stroke-miterlimit="1.45" shape-rendering="geometricPrecision" font-family="sans-serif" transform="matrix(1,0,0,1,133,22)" stroke-linecap="butt">
          <text x="47.7426" xml:space="preserve" y="190.0343" stroke="none">precipito</text>
        </g>
      </g>
    </g>
    <g id="y.edge.1">
      <g text-rendering="geometricPrecision" stroke-miterlimit="1.45" shape-rendering="geometricPrecision" transform="matrix(1,0,0,1,133,22)" stroke-linecap="butt">
        <path fill="none" d="M-48 198.9324 L-48 156.3109 L-47.663 150.5722 L-46.652 145.2037 L-44.9669 140.2054 L-42.6078 135.5774 L-39.5747 131.3196 L-35.8676 127.4321 L-31.4865 123.9148 L-26.4313 120.7677 L-20.7022 117.9909 L-14.299 115.5843 L-7.2218 113.548 L0.5295 111.8819 L18.054 109.6605 L38.2746 108.92 L83.7446 108.92"/>
        <path d="M91.7446 108.92 L79.7446 103.92 L82.7446 108.92 L79.7446 113.92 Z" stroke="none"/>
      </g>
      <g>
        <g text-rendering="geometricPrecision" stroke-miterlimit="1.45" shape-rendering="geometricPrecision" font-family="sans-serif" transform="matrix(1,0,0,1,133,22)" stroke-linecap="butt">
          <text x="-43.3256" xml:space="preserve" y="143.0743" stroke="none">erozio</text>
        </g>
      </g>
    </g>
    <g id="y.edge.5">
      <g text-rendering="geometricPrecision" stroke-miterlimit="1.45" shape-rendering="geometricPrecision" transform="matrix(1,0,0,1,133,22)" stroke-linecap="butt">
        <path fill="none" d="M-72 198.96 L-72 41.84"/>
        <path d="M-72 33.84 L-77 45.84 L-72 42.84 L-67 45.84 Z" stroke="none"/>
      </g>
    </g>
    <g id="y.edge.4">
      <g text-rendering="geometricPrecision" stroke-miterlimit="1.45" shape-rendering="geometricPrecision" transform="matrix(1,0,0,1,133,22)" stroke-linecap="butt">
        <path fill="none" d="M-26 16.92 L83.7214 16.92"/>
        <path d="M91.7214 16.92 L79.7214 11.92 L82.7214 16.92 L79.7214 21.92 Z" stroke="none"/>
      </g>
    </g>
  </g>
</svg>
