<svg xmlns="http://www.w3.org/2000/svg" xmlns:xlink="http://www.w3.org/1999/xlink" fill-opacity="1" color-rendering="auto" color-interpolation="auto" text-rendering="auto" stroke="black" stroke-linecap="square" width="272" stroke-miterlimit="10" shape-rendering="auto" stroke-opacity="1" fill="black" stroke-dasharray="none" font-weight="normal" stroke-width="1" height="321" font-family="'Dialog'" font-style="normal" stroke-linejoin="miter" font-size="12px" stroke-dashoffset="0" image-rendering="auto">
  <!--Generated by ySVG 2.5-->
  <defs id="genericDefs"/>
  <g>
    <defs id="defs1">
      <clipPath clipPathUnits="userSpaceOnUse" id="clipPath1">
        <path d="M0 0 L272 0 L272 321 L0 321 L0 0 Z"/>
      </clipPath>
      <clipPath clipPathUnits="userSpaceOnUse" id="clipPath2">
        <path d="M58 -1 L330 -1 L330 320 L58 320 L58 -1 Z"/>
      </clipPath>
    </defs>
    <g fill="rgb(255,204,0)" text-rendering="geometricPrecision" shape-rendering="geometricPrecision" transform="matrix(1,0,0,1,-58,1)" stroke="rgb(255,204,0)">
      <rect x="148" width="64" height="30" y="274.5" clip-path="url(#clipPath2)" stroke="none"/>
    </g>
    <g text-rendering="geometricPrecision" stroke-miterlimit="1.45" shape-rendering="geometricPrecision" transform="matrix(1,0,0,1,-58,1)" stroke-linecap="butt">
      <rect fill="none" x="148" width="64" height="30" y="274.5" clip-path="url(#clipPath2)"/>
      <text x="173.7861" xml:space="preserve" y="293.6543" clip-path="url(#clipPath2)" font-family="sans-serif" stroke="none">S⁰</text>
    </g>
    <g fill="rgb(255,204,0)" text-rendering="geometricPrecision" shape-rendering="geometricPrecision" transform="matrix(1,0,0,1,-58,1)" stroke="rgb(255,204,0)">
      <rect x="148" width="64" height="30" y="190.5" clip-path="url(#clipPath2)" stroke="none"/>
    </g>
    <g text-rendering="geometricPrecision" stroke-miterlimit="1.45" shape-rendering="geometricPrecision" transform="matrix(1,0,0,1,-58,1)" stroke-linecap="butt">
      <rect fill="none" x="148" width="64" height="30" y="190.5" clip-path="url(#clipPath2)"/>
      <text x="169.2744" xml:space="preserve" y="209.6543" clip-path="url(#clipPath2)" font-family="sans-serif" stroke="none">H₂S</text>
    </g>
    <g fill="rgb(255,204,0)" text-rendering="geometricPrecision" shape-rendering="geometricPrecision" transform="matrix(1,0,0,1,-58,1)" stroke="rgb(255,204,0)">
      <rect x="148" width="64" height="30" y="22.5" clip-path="url(#clipPath2)" stroke="none"/>
    </g>
    <g text-rendering="geometricPrecision" stroke-miterlimit="1.45" shape-rendering="geometricPrecision" transform="matrix(1,0,0,1,-58,1)" stroke-linecap="butt">
      <rect fill="none" x="148" width="64" height="30" y="22.5" clip-path="url(#clipPath2)"/>
      <text x="163.4912" xml:space="preserve" y="41.6543" clip-path="url(#clipPath2)" font-family="sans-serif" stroke="none">SO₄²⁻</text>
    </g>
    <g fill="rgb(153,204,0)" text-rendering="geometricPrecision" shape-rendering="geometricPrecision" transform="matrix(1,0,0,1,-58,1)" stroke="rgb(153,204,0)">
      <rect x="148" width="64" height="30" y="106.5" clip-path="url(#clipPath2)" stroke="none"/>
    </g>
    <g text-rendering="geometricPrecision" stroke-miterlimit="1.45" shape-rendering="geometricPrecision" transform="matrix(1,0,0,1,-58,1)" stroke-linecap="butt">
      <rect fill="none" x="148" width="64" height="30" y="106.5" clip-path="url(#clipPath2)"/>
      <text x="169.5146" xml:space="preserve" y="125.6543" clip-path="url(#clipPath2)" font-family="sans-serif" stroke="none">-SH</text>
      <path fill="none" d="M148 275.9615 L129.95 268.325 L120.9922 263.9445 L114.5938 259.4656 L112.3543 257.1893 L110.7547 254.8883 L109.7949 252.5627 L109.475 250.2125 L109.7949 247.8377 L110.7547 245.4383 L114.5938 240.5656 L120.9922 235.5945 L129.95 230.525 L142.8446 224.0777" clip-path="url(#clipPath2)"/>
      <path d="M150 220.5 L137.0308 221.3944 L141.9501 224.5249 L141.5029 230.3387 Z" clip-path="url(#clipPath2)" stroke="none"/>
      <text x="75.0068" xml:space="preserve" y="261.3947" clip-path="url(#clipPath2)" font-family="sans-serif" stroke="none">reduktiĝo</text>
      <path fill="none" d="M180 220.5 L180 266.5" clip-path="url(#clipPath2)"/>
      <path d="M180 274.5 L185 262.5 L180 265.5 L175 262.5 Z" clip-path="url(#clipPath2)" stroke="none"/>
      <text x="155.1064" xml:space="preserve" y="251.6543" clip-path="url(#clipPath2)" font-family="sans-serif" stroke="none">oksidiĝo</text>
      <path fill="none" d="M212 289.5 L254.25 289.5 L261.6064 289.057 L268.4883 287.7281 L274.8955 285.5133 L280.8281 282.4125 L286.2861 278.4258 L291.2695 273.5531 L295.7783 267.7945 L299.8125 261.15 L303.3721 253.6195 L306.457 245.2031 L309.0674 235.9008 L311.2031 225.7125 L312.8643 214.6383 L314.0508 202.6781 L314.7627 189.832 L315 176.1 L315 150.9 L314.7627 137.168 L314.0508 124.3219 L312.8643 112.3617 L311.2031 101.2875 L309.0674 91.0992 L306.457 81.7969 L303.3721 73.3805 L299.8125 65.85 L295.7783 59.2055 L291.2695 53.4469 L286.2861 48.5742 L280.8281 44.5875 L274.8955 41.4867 L268.4883 39.2719 L261.6064 37.943 L254.25 37.5 L220 37.5" clip-path="url(#clipPath2)"/>
      <path d="M212 37.5 L224 42.5 L221 37.5 L224 32.5 Z" clip-path="url(#clipPath2)" stroke="none"/>
      <text x="235" xml:space="preserve" y="27.4287" clip-path="url(#clipPath2)" font-family="sans-serif" stroke="none">oksidiĝo</text>
      <path fill="none" d="M212 207.1449 L238.85 208.525 L244.6807 208.5197 L250.1352 207.8851 L255.2135 206.6213 L259.9156 204.7281 L264.2416 202.2057 L268.1914 199.0539 L271.765 195.2729 L274.9625 190.8625 L277.7838 185.8228 L280.2289 180.1539 L282.2979 173.8557 L283.9906 166.9281 L286.2477 151.1852 L287 132.925 L287 115.575 L286.2477 97.2762 L283.9906 81.4172 L282.2979 74.4026 L280.2289 67.998 L277.7838 62.2034 L274.9625 57.0187 L271.765 52.444 L268.1914 48.4793 L264.2416 45.1245 L259.9156 42.3797 L255.2135 40.2448 L250.1352 38.7199 L244.6807 37.805 L238.85 37.5 L220 37.5" clip-path="url(#clipPath2)"/>
      <path d="M212 37.5 L224 42.5 L221 37.5 L224 32.5 Z" clip-path="url(#clipPath2)" stroke="none"/>
      <path fill="none" d="M148 39.413 L129.4 40.525 L124.3867 41.1016 L119.6969 42.2125 L115.3305 43.8578 L111.2875 46.0375 L107.568 48.7516 L104.1719 52 L101.0992 55.7828 L98.35 60.1 L95.9242 64.9516 L93.8219 70.3375 L90.5875 82.7125 L88.6469 97.225 L88 113.875 L88 129.625 L88.6469 146.2715 L90.5875 160.7734 L93.8219 173.1309 L95.9242 178.5054 L98.35 183.3438 L101.0992 187.646 L104.1719 191.4121 L107.568 194.6421 L111.2875 197.3359 L115.3305 199.4937 L119.6969 201.1152 L124.3867 202.2007 L129.4 202.75 L140.0118 203.3267" clip-path="url(#clipPath2)"/>
      <path d="M148 203.7609 L136.289 198.117 L139.0133 203.2724 L135.7463 208.1023 Z" clip-path="url(#clipPath2)" stroke="none"/>
      <text x="99.0977" xml:space="preserve" y="68.43" clip-path="url(#clipPath2)" font-family="sans-serif" stroke="none">sulfat-</text>
      <text x="95.7754" xml:space="preserve" y="82.3988" clip-path="url(#clipPath2)" font-family="sans-serif" stroke="none">spirado</text>
      <path fill="none" d="M180 52.5 L180 98.5" clip-path="url(#clipPath2)"/>
      <path d="M180 106.5 L185 94.5 L180 97.5 L175 94.5 Z" clip-path="url(#clipPath2)" stroke="none"/>
      <text x="151.1953" xml:space="preserve" y="83.6543" clip-path="url(#clipPath2)" font-family="sans-serif" stroke="none">asimilado</text>
      <path fill="none" d="M180 136.5 L180 182.5" clip-path="url(#clipPath2)"/>
      <path d="M180 190.5 L185 178.5 L180 181.5 L175 178.5 Z" clip-path="url(#clipPath2)" stroke="none"/>
      <text x="156.4131" xml:space="preserve" y="167.6543" clip-path="url(#clipPath2)" font-family="sans-serif" stroke="none">putrado</text>
    </g>
  </g>
</svg>
