<?xml version="1.0"?>
<!-- Created by MetaPost 2.000 on 2021.04.06:1351 -->
<svg version="1.1" xmlns="http://www.w3.org/2000/svg" xmlns:xlink="http://www.w3.org/1999/xlink" width="100.000000" height="100.000000" viewBox="0 0 100.000000 100.000000">
<!-- Original BoundingBox: 0.000000 0.000000 100.000000 100.000000 -->
  <path d="M5.000305 87.350052L5.000305 63.050217L94.999695 63.050217L94.999695 87.350052L85.999756 87.350052C87.369003 79.395630,80.454269 72.480896,72.499847 73.850143C66.184097 74.937317,62.074326 81.101974,63.499908 87.350052L36.500092 87.350052C37.925690 81.101974,33.815918 74.937317,27.500153 73.850143C19.545731 72.480896,12.630997 79.395630,14.000244 87.350052Z" style="fill: rgb(0.000000%,0.000000%,0.000000%);stroke: none;"></path>
  <path d="M8.600281 64.850204C13.418503 55.213745,21.454895 46.850327,32.000122 46.850327L85.999756 46.850327C90.920807 46.850327,93.649704 52.181900,93.649704 57.650253L93.649704 64.850204" style="stroke:rgb(0.000000%,0.000000%,0.000000%); stroke-width: 2.699982;stroke-linecap: round;stroke-linejoin: round;stroke-miterlimit: 10.000000;fill: none;"></path>
  <path d="M36.500092 46.850327L36.500092 64.850204" style="stroke:rgb(0.000000%,0.000000%,0.000000%); stroke-width: 2.699982;stroke-linecap: round;stroke-linejoin: round;stroke-miterlimit: 10.000000;fill: none;"></path>
  <path d="M55.399963 46.850327L55.399963 64.850204" style="stroke:rgb(0.000000%,0.000000%,0.000000%); stroke-width: 2.699982;stroke-linecap: round;stroke-linejoin: round;stroke-miterlimit: 10.000000;fill: none;"></path>
  <path d="M75.199829 46.850327L75.199829 64.850204" style="stroke:rgb(0.000000%,0.000000%,0.000000%); stroke-width: 2.699982;stroke-linecap: round;stroke-linejoin: round;stroke-miterlimit: 10.000000;fill: none;"></path>
  <path d="M35.150101 85.100067C35.150101 82.474319,34.106873 79.956436,32.250336 78.099899C30.393799 76.243362,27.875916 75.200134,25.250168 75.200134C22.624420 75.200134,20.106537 76.243362,18.250000 78.099899C16.393463 79.956436,15.350235 82.474319,15.350235 85.100067C15.350235 87.725815,16.393463 90.243698,18.250000 92.100235C20.106537 93.956772,22.624420 95.000000,25.250168 95.000000C27.875916 95.000000,30.393799 93.956772,32.250336 92.100235C34.106873 90.243698,35.150101 87.725815,35.150101 85.100067Z" style="fill: rgb(0.000000%,0.000000%,0.000000%);stroke: none;"></path>
  <path d="M84.649765 85.100067C84.649765 82.474319,83.606537 79.956436,81.750000 78.099899C79.893463 76.243362,77.375580 75.200134,74.749832 75.200134C72.124084 75.200134,69.606201 76.243362,67.749664 78.099899C65.893127 79.956436,64.849899 82.474319,64.849899 85.100067C64.849899 87.725815,65.893127 90.243698,67.749664 92.100235C69.606201 93.956772,72.124084 95.000000,74.749832 95.000000C77.375580 95.000000,79.893463 93.956772,81.750000 92.100235C83.606537 90.243698,84.649765 87.725815,84.649765 85.100067Z" style="fill: rgb(0.000000%,0.000000%,0.000000%);stroke: none;"></path>
</svg>
