<?xml version="1.0"?>
<!-- Created by MetaPost 2.000 on 2021.04.06:1351 -->
<svg version="1.1" xmlns="http://www.w3.org/2000/svg" xmlns:xlink="http://www.w3.org/1999/xlink" width="100.000000" height="100.000000" viewBox="0 0 100.000000 100.000000">
<!-- Original BoundingBox: 0.000000 0.000000 100.000000 100.000000 -->
  <path d="M50.870865 69.318268C43.230652 70.545258,38.032272 62.381897,37.437347 53.514130C36.584732 40.805237,42.730423 13.638641,53.241486 14.003784C64.160416 14.383118,63.657928 40.481644,61.143555 53.514130C59.786270 60.549240,57.585922 68.239868,50.870865 69.318268Z" style="fill: rgb(0.000000%,0.000000%,0.000000%);stroke: none;"></path>
  <path d="M39.412857 91.048950L39.412857 95.000000L43.363907 95.000000L59.168045 95.000000L59.168045 91.048950L55.216995 91.048950Z" style="fill: rgb(0.000000%,0.000000%,0.000000%);stroke: none;"></path>
  <path d="M47.314926 95.000000L51.265976 95.000000L51.265976 91.048950L51.265976 59.440674L47.314926 59.440674L47.314926 63.391724Z" style="fill: rgb(0.000000%,0.000000%,0.000000%);stroke: none;"></path>
  <path d="M25.584244 69.318268C17.944031 70.545258,12.745651 62.381897,12.150726 53.514130C11.298111 40.805237,17.443802 13.638641,27.954865 14.003784C38.873795 14.383118,38.371307 40.481644,35.856934 53.514130C34.499649 60.549240,32.299301 68.239868,25.584244 69.318268Z" style="fill: rgb(0.000000%,0.000000%,0.000000%);stroke: none;"></path>
  <path d="M14.126236 91.048950L14.126236 95.000000L18.077286 95.000000L33.881424 95.000000L33.881424 91.048950L29.930374 91.048950Z" style="fill: rgb(0.000000%,0.000000%,0.000000%);stroke: none;"></path>
  <path d="M22.028305 95.000000L25.979355 95.000000L25.979355 91.048950L25.979355 59.440674L22.028305 59.440674L22.028305 63.391724Z" style="fill: rgb(0.000000%,0.000000%,0.000000%);stroke: none;"></path>
  <path d="M76.157486 69.318268C68.517273 70.545258,63.318893 62.381897,62.723969 53.514130C61.871353 40.805237,68.017044 13.638641,78.528107 14.003784C89.447037 14.383118,88.944550 40.481644,86.430176 53.514130C85.072891 60.549240,82.872543 68.239868,76.157486 69.318268Z" style="fill: rgb(0.000000%,0.000000%,0.000000%);stroke: none;"></path>
  <path d="M64.699478 91.048950L64.699478 95.000000L68.650528 95.000000L84.454666 95.000000L84.454666 91.048950L80.503616 91.048950Z" style="fill: rgb(0.000000%,0.000000%,0.000000%);stroke: none;"></path>
  <path d="M72.601547 95.000000L76.552597 95.000000L76.552597 91.048950L76.552597 59.440674L72.601547 59.440674L72.601547 63.391724Z" style="fill: rgb(0.000000%,0.000000%,0.000000%);stroke: none;"></path>
</svg>
