<?xml version="1.0"?>
<!-- Created by MetaPost 2.000 on 2021.04.06:1351 -->
<svg version="1.1" xmlns="http://www.w3.org/2000/svg" xmlns:xlink="http://www.w3.org/1999/xlink" width="100.000000" height="100.000000" viewBox="0 0 100.000000 100.000000">
<!-- Original BoundingBox: 0.000000 0.000000 100.000000 100.000000 -->
  <path d="M9.901428 78.158600L9.901428 61.317200L50.000000 61.317200L50.000000 78.158600L45.990143 78.158600L45.990143 66.129028L37.970428 66.129028L37.970428 78.158600L33.960571 78.158600L33.960571 66.129028L25.940857 66.129028L25.940857 78.158600L21.931000 78.158600L21.931000 66.129028L13.911285 66.129028L13.911285 78.158600Z" style="fill: rgb(0.000000%,0.000000%,0.000000%);stroke: none;"></path>
  <path d="M9.901428 62.119171L9.901428 45.277771L50.000000 45.277771L50.000000 62.119171L45.990143 62.119171L45.990143 50.089600L37.970428 50.089600L37.970428 62.119171L33.960571 62.119171L33.960571 50.089600L25.940857 50.089600L25.940857 62.119171L21.931000 62.119171L21.931000 50.089600L13.911285 50.089600L13.911285 62.119171Z" style="fill: rgb(0.000000%,0.000000%,0.000000%);stroke: none;"></path>
  <path d="M9.901428 46.079742L9.901428 29.238342L50.000000 29.238342L50.000000 46.079742L45.990143 46.079742L45.990143 34.050171L37.970428 34.050171L37.970428 46.079742L33.960571 46.079742L33.960571 34.050171L25.940857 34.050171L25.940857 46.079742L21.931000 46.079742L21.931000 34.050171L13.911285 34.050171L13.911285 46.079742Z" style="fill: rgb(0.000000%,0.000000%,0.000000%);stroke: none;"></path>
  <path d="M9.901428 94.198029L9.901428 77.356628L50.000000 77.356628L50.000000 94.198029L35.564514 94.198029L35.564514 79.762543L24.336914 79.762543L24.336914 94.198029Z" style="fill: rgb(0.000000%,0.000000%,0.000000%);stroke: none;"></path>
  <path d="M9.901428 28.436371L19.525085 18.010742L40.376343 18.010742L50.000000 28.436371Z" style="fill: rgb(0.000000%,0.000000%,0.000000%);stroke: none;"></path>
  <path d="M9.901428 93.396057L9.901428 95.000000L11.505371 95.000000L50.000000 95.000000L50.000000 93.396057L48.396057 93.396057Z" style="fill: rgb(0.000000%,0.000000%,0.000000%);stroke: none;"></path>
  <path d="M62.029572 86.178314L62.029572 69.336914L90.098572 69.336914L90.098572 86.178314L86.088715 86.178314L86.088715 74.148743L78.069000 74.148743L78.069000 86.178314L74.059143 86.178314L74.059143 74.148743L66.039429 74.148743L66.039429 86.178314Z" style="fill: rgb(0.000000%,0.000000%,0.000000%);stroke: none;"></path>
  <path d="M62.029572 70.138885L62.029572 53.297485L90.098572 53.297485L90.098572 70.138885L86.088715 70.138885L86.088715 58.109314L78.069000 58.109314L78.069000 70.138885L74.059143 70.138885L74.059143 58.109314L66.039429 58.109314L66.039429 70.138885Z" style="fill: rgb(0.000000%,0.000000%,0.000000%);stroke: none;"></path>
  <path d="M62.029572 54.099457L62.029572 37.258057L90.098572 37.258057L90.098572 54.099457L86.088715 54.099457L86.088715 42.069885L78.069000 42.069885L78.069000 54.099457L74.059143 54.099457L74.059143 42.069885L66.039429 42.069885L66.039429 54.099457Z" style="fill: rgb(0.000000%,0.000000%,0.000000%);stroke: none;"></path>
  <path d="M62.029572 38.060028L62.029572 21.218628L90.098572 21.218628L90.098572 38.060028L86.088715 38.060028L86.088715 26.030457L78.069000 26.030457L78.069000 38.060028L74.059143 38.060028L74.059143 26.030457L66.039429 26.030457L66.039429 38.060028Z" style="fill: rgb(0.000000%,0.000000%,0.000000%);stroke: none;"></path>
  <path d="M62.029572 94.198029L62.029572 85.376343L90.098572 85.376343L90.098572 94.198029Z" style="fill: rgb(0.000000%,0.000000%,0.000000%);stroke: none;"></path>
  <path d="M62.029572 20.416656L76.064072 14.000885L90.098572 20.416656Z" style="fill: rgb(0.000000%,0.000000%,0.000000%);stroke: none;"></path>
</svg>
