<?xml version="1.0" encoding="UTF-8" standalone="no"?>
<!-- Generator: Adobe Illustrator 12.0.1, SVG Export Plug-In . SVG Version: 6.00 Build 51448)  -->
<svg xmlns:dc="http://purl.org/dc/elements/1.1/" xmlns:cc="http://web.resource.org/cc/" xmlns:rdf="http://www.w3.org/1999/02/22-rdf-syntax-ns#" xmlns:svg="http://www.w3.org/2000/svg" xmlns="http://www.w3.org/2000/svg" xmlns:sodipodi="http://sodipodi.sourceforge.net/DTD/sodipodi-0.dtd" xmlns:inkscape="http://www.inkscape.org/namespaces/inkscape" version="1.1" id="Layer_1" width="208.5" height="77.281" viewBox="0 0 208.5 77.281" style="overflow:visible;enable-background:new 0 0 208.5 77.281;" xml:space="preserve" sodipodi:version="0.32" inkscape:version="0.45.1" sodipodi:docname="Oxalacetat.svg" inkscape:output_extension="org.inkscape.output.svg.inkscape" sodipodi:docbase="E:\Eigene Dateien"><metadata id="metadata40"><rdf:RDF><cc:Work rdf:about=""><dc:format>image/svg+xml</dc:format><dc:type rdf:resource="http://purl.org/dc/dcmitype/StillImage"/></cc:Work></rdf:RDF></metadata><defs id="defs38"/><sodipodi:namedview inkscape:window-height="579" inkscape:window-width="801" inkscape:pageshadow="2" inkscape:pageopacity="0.0" guidetolerance="10.0" gridtolerance="10.0" objecttolerance="10.0" borderopacity="1.0" bordercolor="#666666" pagecolor="#ffffff" id="base" inkscape:zoom="3.4388489" inkscape:cx="104.25" inkscape:cy="38.640499" inkscape:window-x="132" inkscape:window-y="132" inkscape:current-layer="Layer_1"/>
<g id="g3" transform="matrix(0.95,0,0,0.95,5.2125,1.93205)">
	<path d="M 7.756,48.769 C 7.756,45.917 8.522,43.684 10.054,42.07 C 11.586,40.457 13.564,39.65 15.987,39.65 C 17.574,39.65 19.004,40.029 20.278,40.787 C 21.552,41.545 22.523,42.602 23.192,43.958 C 23.86,45.314 24.194,46.852 24.194,48.57 C 24.194,50.312 23.842,51.872 23.139,53.247 C 22.435,54.623 21.439,55.664 20.149,56.371 C 18.859,57.078 17.468,57.432 15.975,57.432 C 14.357,57.432 12.911,57.041 11.637,56.26 C 10.363,55.479 9.398,54.412 8.741,53.06 C 8.084,51.707 7.756,50.276 7.756,48.769 z M 10.1,48.798 C 10.1,50.868 10.657,52.499 11.771,53.691 C 12.885,54.883 14.283,55.478 15.963,55.478 C 17.675,55.478 19.084,54.876 20.191,53.673 C 21.297,52.47 21.85,50.763 21.85,48.552 C 21.85,47.154 21.614,45.933 21.141,44.89 C 20.668,43.847 19.976,43.038 19.065,42.464 C 18.154,41.89 17.132,41.603 15.999,41.603 C 14.389,41.603 13.003,42.156 11.842,43.261 C 10.681,44.366 10.1,46.212 10.1,48.798 z " id="path5"/>
	<path d="M 26.424,48.769 C 26.424,45.917 27.19,43.684 28.722,42.07 C 30.254,40.457 32.232,39.65 34.655,39.65 C 36.242,39.65 37.672,40.029 38.946,40.787 C 40.22,41.545 41.191,42.602 41.86,43.958 C 42.528,45.314 42.862,46.852 42.862,48.57 C 42.862,50.312 42.51,51.872 41.807,53.247 C 41.103,54.623 40.107,55.664 38.817,56.371 C 37.527,57.078 36.136,57.432 34.643,57.432 C 33.025,57.432 31.579,57.041 30.305,56.26 C 29.031,55.479 28.066,54.412 27.409,53.06 C 26.752,51.707 26.424,50.276 26.424,48.769 z M 28.768,48.798 C 28.768,50.868 29.325,52.499 30.439,53.691 C 31.553,54.883 32.951,55.478 34.631,55.478 C 36.343,55.478 37.752,54.876 38.859,53.673 C 39.965,52.47 40.518,50.763 40.518,48.552 C 40.518,47.154 40.282,45.933 39.809,44.89 C 39.336,43.847 38.644,43.038 37.733,42.464 C 36.822,41.89 35.8,41.603 34.667,41.603 C 33.057,41.603 31.671,42.156 30.51,43.261 C 29.349,44.366 28.768,46.212 28.768,48.798 z " id="path7"/>
	<path d="M 58.03,51.106 L 60.311,51.68 C 59.835,53.55 58.978,54.976 57.742,55.957 C 56.505,56.939 54.992,57.43 53.205,57.43 C 51.355,57.43 49.851,57.053 48.692,56.298 C 47.533,55.543 46.651,54.451 46.046,53.02 C 45.441,51.589 45.139,50.053 45.139,48.411 C 45.139,46.62 45.48,45.058 46.163,43.725 C 46.846,42.391 47.817,41.379 49.078,40.687 C 50.338,39.995 51.724,39.649 53.238,39.649 C 54.955,39.649 56.398,40.087 57.568,40.963 C 58.739,41.84 59.554,43.072 60.014,44.66 L 57.78,45.187 C 57.382,43.937 56.805,43.027 56.049,42.457 C 55.292,41.887 54.34,41.602 53.194,41.602 C 51.876,41.602 50.774,41.918 49.888,42.551 C 49.003,43.184 48.381,44.033 48.022,45.1 C 47.663,46.167 47.484,47.266 47.484,48.399 C 47.484,49.86 47.696,51.135 48.121,52.225 C 48.546,53.315 49.206,54.129 50.103,54.668 C 51,55.207 51.97,55.477 53.015,55.477 C 54.286,55.477 55.361,55.11 56.242,54.375 C 57.123,53.64 57.718,52.552 58.03,51.106 z " id="path9"/>
</g>
<path d="M 64.065,53.31185 L 64.8725,51.93435 L 87.7675,65.13935 L 87.7675,67.03935 L 64.065,53.31185 z " id="polygon11"/>
<path d="M 87.7675,67.03935 L 87.7675,65.13935 L 120.44655,46.32935 L 120.44655,48.18185 L 87.7675,67.03935 z " id="polygon13"/>
<g id="g15" transform="matrix(0.95,0,0,0.95,5.2125,1.93205)">
	<path d="M 161.143,70.957 L 163.424,71.531 C 162.948,73.401 162.092,74.827 160.856,75.808 C 159.618,76.79 158.106,77.281 156.319,77.281 C 154.469,77.281 152.965,76.904 151.805,76.149 C 150.647,75.394 149.764,74.302 149.16,72.871 C 148.555,71.44 148.252,69.904 148.252,68.262 C 148.252,66.471 148.594,64.909 149.276,63.576 C 149.959,62.242 150.929,61.23 152.191,60.538 C 153.451,59.846 154.837,59.5 156.351,59.5 C 158.068,59.5 159.511,59.938 160.681,60.814 C 161.851,61.691 162.666,62.923 163.126,64.511 L 160.892,65.038 C 160.495,63.788 159.917,62.878 159.162,62.308 C 158.404,61.738 157.453,61.453 156.307,61.453 C 154.989,61.453 153.887,61.769 153,62.402 C 152.115,63.035 151.493,63.884 151.135,64.951 C 150.776,66.017 150.596,67.117 150.596,68.25 C 150.596,69.711 150.809,70.986 151.234,72.076 C 151.659,73.166 152.319,73.98 153.215,74.519 C 154.111,75.058 155.082,75.328 156.127,75.328 C 157.398,75.328 158.473,74.961 159.354,74.226 C 160.235,73.491 160.832,72.402 161.143,70.957 z " id="path17"/>
	<path d="M 165.538,68.619 C 165.538,65.767 166.304,63.534 167.837,61.92 C 169.368,60.307 171.347,59.5 173.769,59.5 C 175.357,59.5 176.787,59.879 178.06,60.637 C 179.334,61.395 180.306,62.452 180.974,63.808 C 181.642,65.164 181.976,66.702 181.976,68.42 C 181.976,70.162 181.624,71.722 180.921,73.097 C 180.218,74.473 179.221,75.514 177.931,76.221 C 176.642,76.928 175.25,77.282 173.757,77.282 C 172.14,77.282 170.693,76.891 169.419,76.11 C 168.145,75.329 167.181,74.262 166.523,72.91 C 165.866,71.558 165.538,70.127 165.538,68.619 z M 167.881,68.648 C 167.881,70.718 168.438,72.349 169.553,73.541 C 170.666,74.732 172.065,75.328 173.744,75.328 C 175.457,75.328 176.865,74.726 177.973,73.523 C 179.078,72.32 179.631,70.613 179.631,68.402 C 179.631,67.004 179.395,65.783 178.922,64.74 C 178.449,63.697 177.757,62.888 176.846,62.314 C 175.936,61.74 174.914,61.453 173.78,61.453 C 172.171,61.453 170.784,62.006 169.624,63.111 C 168.461,64.217 167.881,66.063 167.881,68.648 z " id="path19"/>
	<path d="M 184.206,68.619 C 184.206,65.767 184.972,63.534 186.505,61.92 C 188.036,60.307 190.015,59.5 192.437,59.5 C 194.025,59.5 195.455,59.879 196.728,60.637 C 198.002,61.395 198.974,62.452 199.642,63.808 C 200.31,65.164 200.644,66.702 200.644,68.42 C 200.644,70.162 200.292,71.722 199.589,73.097 C 198.886,74.473 197.889,75.514 196.599,76.221 C 195.31,76.928 193.918,77.282 192.425,77.282 C 190.808,77.282 189.361,76.891 188.087,76.11 C 186.813,75.329 185.849,74.262 185.191,72.91 C 184.534,71.558 184.206,70.127 184.206,68.619 z M 186.549,68.648 C 186.549,70.718 187.106,72.349 188.221,73.541 C 189.334,74.732 190.733,75.328 192.412,75.328 C 194.125,75.328 195.533,74.726 196.641,73.523 C 197.746,72.32 198.299,70.613 198.299,68.402 C 198.299,67.004 198.063,65.783 197.59,64.74 C 197.117,63.697 196.425,62.888 195.514,62.314 C 194.604,61.74 193.582,61.453 192.448,61.453 C 190.839,61.453 189.452,62.006 188.292,63.111 C 187.129,64.217 186.549,66.063 186.549,68.648 z " id="path21"/>
</g>
<path d="M 120.44655,48.18185 L 120.44655,46.32935 L 145.385,60.72185 L 144.5775,62.14685 L 120.44655,48.18185 z " id="polygon23"/>
<path style="fill:none;stroke:#000000;stroke-width:1.28250003" d="M 5.2125,37.35185 L 12.8125,37.35185" id="line25"/>
<path style="fill:none;stroke:#000000;stroke-width:1.28250003" d="M 195.6875,55.829351 L 203.2875,55.829351" id="line27"/>
<g id="g29" transform="matrix(0.95,0,0,0.95,5.2125,1.93205)">
	<path d="M 113.056,9.119 C 113.056,6.267 113.822,4.034 115.354,2.42 C 116.886,0.807 118.864,0 121.287,0 C 122.874,0 124.304,0.379 125.578,1.137 C 126.852,1.895 127.823,2.952 128.491,4.308 C 129.16,5.664 129.494,7.202 129.494,8.92 C 129.494,10.662 129.142,12.222 128.438,13.597 C 127.735,14.973 126.739,16.014 125.449,16.721 C 124.159,17.428 122.768,17.782 121.275,17.782 C 119.657,17.782 118.211,17.391 116.937,16.61 C 115.663,15.829 114.698,14.762 114.041,13.41 C 113.384,12.058 113.056,10.627 113.056,9.119 z M 115.4,9.148 C 115.4,11.218 115.957,12.849 117.071,14.041 C 118.185,15.233 119.583,15.828 121.263,15.828 C 122.975,15.828 124.384,15.226 125.491,14.023 C 126.596,12.82 127.15,11.113 127.15,8.902 C 127.15,7.504 126.914,6.283 126.44,5.24 C 125.967,4.197 125.276,3.388 124.365,2.814 C 123.454,2.24 122.432,1.953 121.299,1.953 C 119.689,1.953 118.303,2.506 117.142,3.611 C 115.981,4.716 115.4,6.563 115.4,9.148 z " id="path31"/>
</g>
<path d="M 116.79,20.96435 L 118.405,20.96435 L 118.405,48.893401 L 116.79,48.893401 L 116.79,20.96435 z " id="rect33"/>
<path d="M 122.4425,20.96435 L 124.0575,20.96435 L 124.0575,48.893401 L 122.4425,48.893401 L 122.4425,20.96435 z " id="rect35"/>
<script xmlns=""/></svg>